<svg width="209" height="88" viewBox="0 0 209 88" fill="none" xmlns="http://www.w3.org/2000/svg">
<path d="M38.8933 46.323C38.8933 52.9142 38.8933 59.5055 38.8933 66.0967C38.8933 66.4641 38.9366 67.0044 38.6989 67.1773C38.4396 67.3502 38.0723 66.9179 37.7914 66.7234C34.2693 64.2814 30.7473 61.8394 27.2685 59.3542C26.6419 58.922 26.0153 58.7491 25.2807 58.7491C19.1226 58.7707 12.9861 58.7491 6.82794 58.7491C2.917 58.7491 0 55.8533 0 51.9633C0 43.5352 0 35.1286 0.0216074 26.7005C0.0216074 22.9186 2.87379 19.9579 6.65508 19.9363C15.1684 19.8931 23.7033 19.8931 32.2166 19.9147C36.0196 19.9363 38.8717 22.8754 38.8717 26.6572C38.8933 33.2053 38.8717 39.7749 38.8717 46.323H38.8933ZM18.5608 51.7689C20.8079 51.7905 22.9255 51.4231 24.7405 49.9752C25.043 49.7374 25.4319 49.4997 25.4319 49.0675C25.4535 48.0302 25.4751 46.9929 25.4103 45.9556C25.3671 45.3505 24.9782 45.156 24.4164 45.5234C24.1571 45.6962 23.8978 45.8907 23.6385 46.0636C20.5919 48.2679 15.19 48.2031 13.6127 43.0165C12.9212 40.7258 12.9861 38.3918 13.6127 36.1227C14.7579 32.1031 19.3818 30.3311 22.8822 32.5353C23.2064 32.7515 23.5089 33.0324 23.8114 33.2701C24.1139 33.5078 24.438 33.6375 24.8053 33.4862C25.2158 33.3349 25.2807 32.9892 25.2807 32.6002C25.2807 32.0167 25.2375 31.4548 25.3023 30.8713C25.4103 29.6611 24.8053 28.9048 23.7681 28.4509C17.8477 25.9009 11.171 27.5433 8.51332 34.6964C7.32491 37.8732 7.60581 41.2444 8.40528 44.5293C9.11833 47.5332 10.8253 49.7374 13.6991 50.9476C15.2548 51.596 16.897 51.7689 18.5608 51.7689ZM27.8087 39.1914C27.7655 38.2838 27.0093 37.5922 26.1017 37.6139C25.1942 37.6355 24.5028 38.3702 24.5244 39.2995C24.5676 40.2071 25.3239 40.9419 26.1882 40.8987C27.0957 40.8555 27.8303 40.0559 27.8087 39.1914ZM18.9281 39.2563C18.9281 38.3918 18.1502 37.6139 17.2643 37.6139C16.3784 37.6139 15.6005 38.3702 15.6005 39.2347C15.6005 40.0775 16.4 40.8771 17.2643 40.8987C18.107 40.9203 18.9281 40.1207 18.9281 39.2563ZM23.336 39.2995C23.3576 38.3486 22.6878 37.6355 21.7587 37.6139C20.8728 37.5922 20.1165 38.3486 20.1165 39.2563C20.1165 40.1207 20.7863 40.8338 21.6506 40.8987C22.5365 40.9419 23.3144 40.2071 23.336 39.2995Z" fill="#519252"/>
<path d="M54.264 16.44V39H47.992V16.44H54.264ZM66.1877 39.224C64.3957 39.224 62.785 38.8507 61.3557 38.104C59.9477 37.3573 58.8384 36.2907 58.0277 34.904C57.217 33.5173 56.8117 31.8853 56.8117 30.008C56.8117 28.152 57.217 26.5307 58.0277 25.144C58.8597 23.7573 59.9797 22.6907 61.3877 21.944C62.817 21.1973 64.4277 20.824 66.2197 20.824C68.0117 20.824 69.6117 21.1973 71.0197 21.944C72.449 22.6907 73.569 23.7573 74.3797 25.144C75.2117 26.5307 75.6277 28.152 75.6277 30.008C75.6277 31.864 75.2117 33.496 74.3797 34.904C73.569 36.2907 72.449 37.3573 71.0197 38.104C69.5904 38.8507 67.9797 39.224 66.1877 39.224ZM66.1877 33.784C67.0624 33.784 67.7877 33.464 68.3637 32.824C68.961 32.1627 69.2597 31.224 69.2597 30.008C69.2597 28.792 68.961 27.864 68.3637 27.224C67.7877 26.584 67.073 26.264 66.2197 26.264C65.3664 26.264 64.6517 26.584 64.0757 27.224C63.4997 27.864 63.2117 28.792 63.2117 30.008C63.2117 31.2453 63.489 32.184 64.0437 32.824C64.5984 33.464 65.313 33.784 66.1877 33.784ZM89.9235 20.888C91.9928 20.888 93.6355 21.5813 94.8515 22.968C96.0675 24.3333 96.6755 26.1893 96.6755 28.536V39H90.4035V29.368C90.4035 28.344 90.1368 27.544 89.6035 26.968C89.0701 26.3707 88.3555 26.072 87.4595 26.072C86.5208 26.072 85.7848 26.3707 85.2515 26.968C84.7181 27.544 84.4515 28.344 84.4515 29.368V39H78.1795V21.048H84.4515V23.608C85.0061 22.7973 85.7528 22.1467 86.6915 21.656C87.6301 21.144 88.7075 20.888 89.9235 20.888ZM99.349 27.672C99.349 25.4533 99.8076 23.48 100.725 21.752C101.664 20.0027 102.986 18.648 104.693 17.688C106.4 16.7067 108.362 16.216 110.581 16.216C113.397 16.216 115.765 16.9733 117.685 18.488C119.605 19.9813 120.842 22.0187 121.397 24.6H114.645C114.24 23.7467 113.674 23.096 112.949 22.648C112.245 22.2 111.424 21.976 110.485 21.976C109.034 21.976 107.872 22.4987 106.997 23.544C106.144 24.568 105.717 25.944 105.717 27.672C105.717 29.4213 106.144 30.8187 106.997 31.864C107.872 32.888 109.034 33.4 110.485 33.4C111.424 33.4 112.245 33.176 112.949 32.728C113.674 32.28 114.24 31.6293 114.645 30.776H121.397C120.842 33.3573 119.605 35.4053 117.685 36.92C115.765 38.4133 113.397 39.16 110.581 39.16C108.362 39.16 106.4 38.68 104.693 37.72C102.986 36.7387 101.664 35.384 100.725 33.656C99.8076 31.9067 99.349 29.912 99.349 27.672ZM136.175 20.888C138.223 20.888 139.844 21.5813 141.039 22.968C142.255 24.3333 142.863 26.1893 142.863 28.536V39H136.591V29.368C136.591 28.344 136.324 27.544 135.791 26.968C135.258 26.3707 134.543 26.072 133.647 26.072C132.708 26.072 131.972 26.3707 131.439 26.968C130.906 27.544 130.639 28.344 130.639 29.368V39H124.367V15.32H130.639V23.608C131.194 22.7973 131.94 22.1467 132.879 21.656C133.839 21.144 134.938 20.888 136.175 20.888ZM145.28 30.008C145.28 28.152 145.611 26.5307 146.272 25.144C146.955 23.7573 147.872 22.6907 149.024 21.944C150.198 21.1973 151.499 20.824 152.928 20.824C154.166 20.824 155.232 21.0693 156.128 21.56C157.024 22.0507 157.718 22.712 158.208 23.544V21.048H164.48V39H158.208V36.504C157.718 37.336 157.014 37.9973 156.096 38.488C155.2 38.9787 154.144 39.224 152.928 39.224C151.499 39.224 150.198 38.8507 149.024 38.104C147.872 37.3573 146.955 36.2907 146.272 34.904C145.611 33.496 145.28 31.864 145.28 30.008ZM158.208 30.008C158.208 28.856 157.888 27.9493 157.248 27.288C156.63 26.6267 155.862 26.296 154.944 26.296C154.006 26.296 153.227 26.6267 152.608 27.288C151.99 27.928 151.68 28.8347 151.68 30.008C151.68 31.16 151.99 32.0773 152.608 32.76C153.227 33.4213 154.006 33.752 154.944 33.752C155.862 33.752 156.63 33.4213 157.248 32.76C157.888 32.0987 158.208 31.1813 158.208 30.008ZM178.646 33.656V39H175.926C171.34 39 169.046 36.728 169.046 32.184V26.264H166.838V21.048H169.046V16.696H175.35V21.048H178.614V26.264H175.35V32.28C175.35 32.7707 175.457 33.1227 175.67 33.336C175.905 33.5493 176.289 33.656 176.822 33.656H178.646ZM62.264 67.32H54.264L53.048 71H46.456L54.68 48.44H61.912L70.104 71H63.48L62.264 67.32ZM60.696 62.52L58.264 55.224L55.864 62.52H60.696ZM78.4202 55.544C78.9109 54.712 79.6042 54.0507 80.5002 53.56C81.3962 53.0693 82.4522 52.824 83.6682 52.824C85.0975 52.824 86.3882 53.1973 87.5402 53.944C88.7135 54.6907 89.6309 55.7573 90.2922 57.144C90.9749 58.5307 91.3162 60.152 91.3162 62.008C91.3162 63.864 90.9749 65.496 90.2922 66.904C89.6309 68.2907 88.7135 69.3573 87.5402 70.104C86.3882 70.8507 85.0975 71.224 83.6682 71.224C82.4522 71.224 81.3962 70.9787 80.5002 70.488C79.6255 69.9973 78.9322 69.336 78.4202 68.504V79.576H72.1482V53.048H78.4202V55.544ZM84.9482 62.008C84.9482 60.8347 84.6282 59.928 83.9882 59.288C83.3695 58.6267 82.6015 58.296 81.6842 58.296C80.7669 58.296 79.9882 58.6267 79.3482 59.288C78.7295 59.9493 78.4202 60.856 78.4202 62.008C78.4202 63.1813 78.7295 64.0987 79.3482 64.76C79.9882 65.4213 80.7669 65.752 81.6842 65.752C82.6015 65.752 83.3695 65.4213 83.9882 64.76C84.6282 64.0773 84.9482 63.16 84.9482 62.008ZM100.17 55.544C100.661 54.712 101.354 54.0507 102.25 53.56C103.146 53.0693 104.202 52.824 105.418 52.824C106.848 52.824 108.138 53.1973 109.29 53.944C110.464 54.6907 111.381 55.7573 112.042 57.144C112.725 58.5307 113.066 60.152 113.066 62.008C113.066 63.864 112.725 65.496 112.042 66.904C111.381 68.2907 110.464 69.3573 109.29 70.104C108.138 70.8507 106.848 71.224 105.418 71.224C104.202 71.224 103.146 70.9787 102.25 70.488C101.376 69.9973 100.682 69.336 100.17 68.504V79.576H93.8982V53.048H100.17V55.544ZM106.698 62.008C106.698 60.8347 106.378 59.928 105.738 59.288C105.12 58.6267 104.352 58.296 103.434 58.296C102.517 58.296 101.738 58.6267 101.098 59.288C100.48 59.9493 100.17 60.856 100.17 62.008C100.17 63.1813 100.48 64.0987 101.098 64.76C101.738 65.4213 102.517 65.752 103.434 65.752C104.352 65.752 105.12 65.4213 105.738 64.76C106.378 64.0773 106.698 63.16 106.698 62.008Z" fill="#519252"/>
</svg>
