<svg width="26" height="32" viewBox="0 0 26 32" fill="none" xmlns="http://www.w3.org/2000/svg">
<path d="M25.9979 17.8693C25.9979 22.327 25.9979 26.7846 25.9979 31.2422C25.9979 31.4907 26.0268 31.8561 25.868 31.973C25.6946 32.0899 25.4491 31.7976 25.2613 31.6661C22.9071 30.0145 20.5528 28.363 18.2274 26.6823C17.8086 26.39 17.3897 26.2731 16.8987 26.2731C12.7823 26.2877 8.68043 26.2731 4.56408 26.2731C1.94985 26.2731 0 24.3146 0 21.6839C0 15.984 0 10.2987 0.0144433 4.59876C0.0144433 2.04111 1.92096 0.0388304 4.44854 0.0242152C10.1392 -0.00501513 15.8443 -0.00501513 21.535 0.00960004C24.077 0.0242152 25.9835 2.01188 25.9835 4.56953C25.9979 8.99793 25.9835 13.4409 25.9835 17.8693H25.9979ZM12.4068 21.5524C13.9089 21.567 15.3243 21.3185 16.5376 20.3393C16.7398 20.1785 16.9998 20.0178 16.9998 19.7255C17.0142 19.0239 17.0287 18.3224 16.9853 17.6209C16.9564 17.2117 16.6965 17.0801 16.3209 17.3286C16.1476 17.4455 15.9743 17.577 15.801 17.694C13.7645 19.1847 10.1536 19.1409 9.09928 15.6332C8.6371 14.084 8.68043 12.5056 9.09928 10.971C9.86478 8.25255 12.9556 7.05411 15.2955 8.54486C15.5121 8.69101 15.7143 8.88101 15.9165 9.04177C16.1187 9.20254 16.3354 9.29023 16.5809 9.18793C16.8553 9.08562 16.8987 8.85178 16.8987 8.5887C16.8987 8.19409 16.8698 7.8141 16.9131 7.41949C16.9853 6.60104 16.5809 6.08951 15.8876 5.78259C11.9302 4.058 7.46719 5.16875 5.69066 10.0064C4.89628 12.1548 5.08404 14.4348 5.61845 16.6563C6.09507 18.6878 7.2361 20.1785 9.15705 20.997C10.197 21.4354 11.2947 21.5524 12.4068 21.5524ZM18.5885 13.0463C18.5596 12.4325 18.0541 11.9648 17.4475 11.9794C16.8409 11.994 16.3787 12.491 16.3932 13.1194C16.422 13.7332 16.9276 14.2302 17.5053 14.2009C18.1119 14.1717 18.603 13.6309 18.5885 13.0463ZM12.6523 13.0902C12.6523 12.5056 12.1324 11.9794 11.5402 11.9794C10.948 11.9794 10.4281 12.491 10.4281 13.0756C10.4281 13.6456 10.9625 14.1863 11.5402 14.2009C12.1035 14.2155 12.6523 13.6748 12.6523 13.0902ZM15.5988 13.1194C15.6132 12.4763 15.1655 11.994 14.5444 11.9794C13.9522 11.9648 13.4467 12.4763 13.4467 13.0902C13.4467 13.6748 13.8945 14.1571 14.4722 14.2009C15.0644 14.2302 15.5843 13.7332 15.5988 13.1194Z" fill="white"/>
</svg>
