<svg width="39" height="49" viewBox="0 0 39 49" fill="none" xmlns="http://www.w3.org/2000/svg">
<path d="M38.8933 27.323C38.8933 33.9142 38.8933 40.5055 38.8933 47.0967C38.8933 47.4641 38.9366 48.0044 38.6989 48.1773C38.4396 48.3502 38.0723 47.9179 37.7914 47.7234C34.2693 45.2814 30.7473 42.8394 27.2685 40.3542C26.6419 39.922 26.0153 39.7491 25.2807 39.7491C19.1226 39.7707 12.9861 39.7491 6.82794 39.7491C2.917 39.7491 0 36.8533 0 32.9633C0 24.5352 0 16.1286 0.0216074 7.70046C0.0216074 3.91859 2.87379 0.957929 6.65508 0.936318C15.1684 0.893097 23.7033 0.893097 32.2166 0.914708C36.0196 0.936318 38.8717 3.87537 38.8717 7.65724C38.8933 14.2053 38.8717 20.7749 38.8717 27.323H38.8933ZM18.5608 32.7689C20.8079 32.7905 22.9255 32.4231 24.7405 30.9752C25.043 30.7374 25.4319 30.4997 25.4319 30.0675C25.4535 29.0302 25.4751 27.9929 25.4103 26.9556C25.3671 26.3505 24.9782 26.156 24.4164 26.5234C24.1571 26.6962 23.8978 26.8907 23.6385 27.0636C20.5919 29.2679 15.19 29.2031 13.6127 24.0165C12.9212 21.7258 12.9861 19.3918 13.6127 17.1227C14.7579 13.1031 19.3818 11.3311 22.8822 13.5353C23.2064 13.7515 23.5089 14.0324 23.8114 14.2701C24.1139 14.5078 24.438 14.6375 24.8053 14.4862C25.2158 14.3349 25.2807 13.9892 25.2807 13.6002C25.2807 13.0167 25.2375 12.4548 25.3023 11.8713C25.4103 10.6611 24.8053 9.90475 23.7681 9.45093C17.8477 6.90087 11.171 8.54328 8.51332 15.6964C7.32491 18.8732 7.60581 22.2444 8.40528 25.5293C9.11833 28.5332 10.8253 30.7374 13.6991 31.9476C15.2548 32.596 16.897 32.7689 18.5608 32.7689ZM27.8087 20.1914C27.7655 19.2838 27.0093 18.5922 26.1017 18.6139C25.1942 18.6355 24.5028 19.3702 24.5244 20.2995C24.5676 21.2071 25.3239 21.9419 26.1882 21.8987C27.0957 21.8555 27.8303 21.0559 27.8087 20.1914ZM18.9281 20.2563C18.9281 19.3918 18.1502 18.6139 17.2643 18.6139C16.3784 18.6139 15.6005 19.3702 15.6005 20.2347C15.6005 21.0775 16.4 21.8771 17.2643 21.8987C18.107 21.9203 18.9281 21.1207 18.9281 20.2563ZM23.336 20.2995C23.3576 19.3486 22.6878 18.6355 21.7587 18.6139C20.8728 18.5922 20.1165 19.3486 20.1165 20.2563C20.1165 21.1207 20.7863 21.8338 21.6506 21.8987C22.5365 21.9419 23.3144 21.2071 23.336 20.2995Z" fill="#519252"/>
</svg>
